<?xml version="1.0" encoding="utf-8"?>
<svg width="300" height="300" xmlns="http://www.w3.org/2000/svg">
  <g stroke="null" transform="matrix(1, 0, 0, 1, 66.312744, -16.578186)">
    <path fill="#a4a39e" d="M 78.785 314.137 C 59.781 310.873 38.985 302.405 23.115 291.472 C 0.812 276.106 -16.895 255.762 -30.035 230.4 C -40.855 209.517 -44.215 196.23 -57.071 123.507 C -65.965 73.123 -66.275 70.727 -66.311 52.03 C -66.345 33.99 -65.737 30.753 -61.255 25.173 C -55.023 17.407 -43.069 15.949 0.905 17.593 C 54.905 19.613 72.842 19.573 154.471 17.243 C 205.464 15.788 210.107 16.235 220.291 23.589 C 226.706 28.221 229.464 32.556 231.216 40.763 C 233.942 53.533 231.012 133.277 226.306 174.38 C 220.153 228.122 208.612 254.325 180.068 279.342 C 161.574 295.542 131.904 309.692 107.768 313.802 C 99.111 315.275 86.275 315.425 78.794 314.14 L 78.795 314.14 Z"/>
    <path fill="#918a72" d="M 81.698 313.995 C 64.765 311.477 42.065 303.009 27.638 293.845 C -4.805 273.225 -32.159 235.401 -41.574 198.137 C -46.092 180.243 -60.055 104.213 -63.895 76.531 C -66.045 61.055 -66.445 43.048 -64.817 35.171 C -62.937 26.087 -57.869 20.956 -48.952 19.113 C -41.209 17.511 -24.165 17.35 9.613 18.558 C 48.566 19.952 89.238 19.958 131.53 18.608 C 175.67 17.188 201.532 17.038 206.518 18.172 C 219.654 21.16 227.978 29.138 230.185 40.86 C 233.308 57.435 228.953 152.737 223.393 189.513 C 216.41 235.695 202.333 261.705 171.696 285.023 C 154.473 298.133 128.702 309.468 107.853 313.103 C 100.669 314.355 87.188 314.817 81.697 313.999 L 81.697 313.998 Z"/>
    <path fill="#857854" d="M 80.633 313.48 C 69.128 311.812 51.857 306.287 39.607 300.35 C 10.145 286.073 -17.268 256.233 -33.32 220.966 C -40.142 205.976 -44.39 187.7 -55.217 126.823 C -65.115 71.187 -67.263 51.863 -65.047 38.475 C -62.471 22.923 -56.883 19.048 -35.382 17.899 C -31.029 17.666 -10.066 18.101 12.514 18.892 C 57.714 20.475 86.409 20.4 143.624 18.55 L 191.036 17.708 C 204.556 17.915 205.889 18.048 210.492 19.653 C 220.092 23.001 226.842 29.753 229.346 38.49 C 234.028 54.847 228.029 166.556 220.466 203.853 C 212.59 242.69 196.976 267.133 166.699 288.023 C 151.679 298.385 134.469 306.306 117.522 310.655 C 103.07 314.365 92.382 315.183 80.632 313.482 L 80.634 313.481 Z"/>
    <path fill="#656359" d="M 82.259 313.777 C 66.645 311.582 45.029 303.927 30.317 295.382 C 2.773 279.384 -25.721 243.885 -37.307 211.136 C -41.687 198.758 -46.481 176.083 -55.687 124.23 C -65.055 71.456 -67.217 51.6 -65.029 38.393 C -61.743 18.556 -54.887 16.451 -0.47 18.573 C 41.166 20.203 92.864 20.466 130.56 19.238 L 182.53 18.215 C 200.886 18.216 203.62 18.355 208.385 19.543 C 218.251 22 225.815 28.638 228.519 37.213 C 230.169 42.451 230.131 111.053 228.465 130.583 C 223.595 187.685 222.271 197.72 217.065 216.87 C 209.579 244.463 198.019 262.774 177.075 280.216 C 153.752 299.64 120.48 313.366 94.878 314.123 C 90.282 314.259 84.594 314.1 82.238 313.769 L 82.243 313.768 Z"/>
    <path fill="#664e0b" d="M 77.575 312.495 C 61.309 309.659 39.725 301.052 26.005 291.93 C -3.709 272.175 -29.435 237.058 -39.202 202.92 C -42.424 191.658 -47.006 168.763 -54.642 125.764 C -63.766 74.389 -64.379 69.734 -64.394 51.711 C -64.408 34.176 -63.511 29.736 -58.997 24.999 C -52.425 18.103 -44.115 17.453 12.759 19.4 C 63.454 21.135 73.853 21.145 127.661 19.516 C 180.566 17.914 201.118 17.846 207.309 19.25 C 216.809 21.407 225.249 28.643 228.246 37.22 C 229.993 42.222 230.593 75.517 229.349 98.394 C 224.731 183.31 220.795 211.167 209.849 236.447 C 195.029 270.672 161.959 297.345 119.043 309.695 C 104.577 313.857 90.743 314.791 77.575 312.495 L 77.576 312.494 Z"/>
    <path fill="#58430a" d="M 77.575 312.495 C 61.309 309.659 39.725 301.052 26.005 291.93 C -3.709 272.175 -29.435 237.058 -39.202 202.92 C -42.424 191.658 -47.006 168.763 -54.642 125.764 C -63.766 74.389 -64.379 69.734 -64.394 51.711 C -64.408 34.176 -63.511 29.736 -58.997 24.999 C -52.425 18.103 -44.115 17.453 12.759 19.4 C 56.733 20.905 96.662 21.173 123.307 20.143 L 159.827 19.107 L 180.865 18.67 L 178.553 23.116 C 167.253 44.828 143.18 80.716 132.559 91.65 C 122.829 101.668 123.969 109.02 135.249 109.02 C 138.579 109.02 140.037 108.438 147.299 104.213 C 156.029 99.133 159.647 95.733 171.985 81.008 C 178.942 72.705 191.331 54.271 202.627 35.416 C 207.041 28.049 210.907 21.851 211.217 21.646 C 211.957 21.154 216.401 23.112 219.37 25.236 C 222.57 27.536 226.182 32.404 226.895 35.396 C 227.543 38.118 226.618 40.292 202.125 93.566 L 184.125 132.734 C 181.802 137.808 179.613 143.588 179.262 145.58 L 178.622 149.2 L 181.572 147.19 C 187.946 142.85 202.504 121.79 219.549 92.276 L 228.417 77.144 C 229.514 75.53 228.667 117.669 227.323 131.557 L 224.903 160.534 C 222.291 194.652 218.846 212.966 211.33 232.7 C 199.423 263.96 170.563 290.788 133.775 304.795 C 111.95 313.105 94.657 315.473 77.575 312.493 L 77.575 312.492 Z"/>
    <path fill="#513e0a" d="M 77.575 312.495 C 61.309 309.659 39.725 301.052 26.005 291.93 C -3.709 272.175 -29.435 237.058 -39.202 202.92 C -42.424 191.658 -47.006 168.763 -54.642 125.764 C -63.766 74.389 -64.379 69.734 -64.394 51.711 C -64.408 34.176 -63.511 29.736 -58.997 24.999 C -52.679 18.369 -42.947 17.456 3.056 19.181 C 20.756 19.845 50.442 20.505 69.003 20.647 C 100.971 20.892 102.858 20.973 104.8 22.177 C 105.927 22.877 108.918 24.331 111.445 25.41 L 116.04 27.372 L 123.543 26.288 C 132.443 25.003 138.597 23.185 141.033 21.123 C 142.71 19.703 143.637 19.6 158.453 19.158 C 167.06 18.901 174.103 18.924 174.103 19.208 C 174.103 19.492 170.369 26.126 165.806 33.948 C 155.116 52.272 139.389 72.205 129.946 79.4 C 118.46 88.152 115.56 90 109.576 92.38 C 95.546 97.96 94.496 107.465 106.9 116.646 C 109.187 118.339 112.83 120.541 114.996 121.54 C 118.468 123.14 119.494 123.307 123.666 122.938 C 135.116 121.928 137.493 121.042 147.419 114.094 C 155.459 108.468 157.979 106.104 166.125 96.554 C 176.723 84.129 191.811 61.986 205.025 39.476 C 209.907 31.153 214.235 24.118 214.645 23.842 C 215.945 22.972 220.175 25.768 222.941 29.308 L 225.601 32.715 L 220.581 43.662 C 205.444 76.667 193.255 102.032 184.321 119.125 C 173.896 139.065 156.935 167.987 151.265 175.489 C 147.405 180.595 143.15 188.749 143.15 191.039 C 143.15 191.929 143.597 192.842 144.144 193.067 C 145.574 193.655 152.992 191.114 155.921 189.033 C 165.968 181.893 183.947 159.143 199.316 134.123 C 206.703 122.096 225.294 90.423 228.411 84.553 C 229.626 82.265 228.628 118.151 227.119 131.013 C 226.276 138.197 225.729 140.621 225.399 138.643 C 224.949 135.966 224.343 136.997 217.437 152.166 C 201.452 187.276 198.653 194.666 201.337 194.666 C 202.66 194.666 209.779 187.599 211.715 184.363 C 212.245 183.478 215.115 179.276 218.07 175.027 L 223.46 167.3 L 223.46 172.9 C 223.46 188.593 218.93 210.787 211.322 232.354 C 200.548 262.9 170.779 290.718 133.792 304.804 C 111.967 313.114 94.674 315.482 77.592 312.502 L 77.593 312.497 Z"/>
    <path fill="#473711" d="M 77.575 312.495 C 61.309 309.659 39.725 301.052 26.005 291.93 C -3.709 272.175 -29.435 237.058 -39.202 202.92 C -42.424 191.658 -47.006 168.763 -54.642 125.764 C -63.766 74.389 -64.379 69.734 -64.394 51.711 C -64.408 34.176 -63.511 29.736 -58.997 24.999 C -52.681 18.373 -42.961 17.459 3.058 19.168 L 62.27 20.644 L 89.282 20.924 L 94.685 24.565 C 104.812 31.391 119.757 36.908 121.063 34.303 C 121.246 33.937 124.133 33.203 127.481 32.703 C 135.255 31.496 138.533 30.35 141.361 27.85 C 142.609 26.746 145.591 24.425 147.985 22.69 L 152.339 19.538 L 160.322 19.115 C 165.802 18.815 168.305 18.911 168.305 19.391 C 168.305 20.197 163.888 28.577 161.958 31.435 C 161.24 32.497 159.744 34.929 158.634 36.838 C 156.539 40.441 144.222 56.125 139.162 61.632 C 137.569 63.366 132.295 67.857 127.442 71.612 L 117.88 79.012 C 117.475 79.327 115.46 79.647 113.4 79.725 C 111.34 79.803 106.972 80.668 103.69 81.648 C 98.262 83.268 97.33 83.365 93.398 82.706 C 86.633 81.572 82.622 81.796 79.694 83.472 C 77.422 84.772 77.104 85.41 77.211 88.472 C 77.451 95.432 83.761 106.5 94.244 118.354 C 99.378 124.159 100.039 124.622 108.496 128.33 C 113.374 130.468 118.246 132.218 119.321 132.218 C 123.353 132.218 137.577 128.888 139.425 127.508 C 153.792 116.798 157.833 113.105 167.161 102.168 C 172.647 95.735 178.571 88.056 180.328 85.104 C 182.085 82.152 185.596 76.704 188.133 72.974 C 193.463 65.162 207.565 42.319 209.403 38.524 C 210.706 35.824 216.758 25.882 217.431 25.324 C 218.267 24.63 222.491 28.708 222.491 30.21 C 222.491 31.087 221.656 33.46 220.635 35.487 C 219.614 37.514 217.265 42.647 215.415 46.897 C 206.942 66.354 193.787 93.057 177.031 124.813 C 173.946 130.66 166.571 142.517 165.418 143.487 C 164.998 143.841 162.872 147.029 160.696 150.57 C 157.12 156.39 145.036 171.71 138.854 178.26 C 136.354 180.898 127.494 188.25 118.844 194.84 C 116.174 196.876 113.614 199.406 113.16 200.462 C 111.983 203.192 113.62 206.469 117.56 209.242 C 120.9 211.598 120.94 211.606 127.092 211.224 C 135.946 210.674 138.218 209.824 147.878 203.539 C 154.721 199.079 158.281 196.011 165.002 188.772 C 173.34 179.792 189.072 158.497 193.772 149.828 C 195.087 147.402 198.619 141.43 201.62 136.558 C 210.42 122.266 228.11 91.354 228.645 89.328 C 229.367 86.598 228.2 122.614 227.37 128.676 C 226.836 132.578 226.63 133.076 226.52 130.731 C 226.366 127.456 225.09 127.145 224.005 130.119 C 223.307 132.034 208.235 163.177 197.121 185.664 C 193.358 193.279 188.126 203.276 185.494 207.88 C 179.127 219.018 173.154 230.56 173.154 231.728 C 173.154 239.108 210.759 195.831 222.132 175.362 L 223.384 173.108 L 223.426 175.81 C 223.616 187.84 218.346 212.476 211.33 232.367 C 200.556 262.913 170.787 290.731 133.8 304.817 C 111.975 313.127 94.682 315.495 77.6 312.515 L 77.598 312.514 Z"/>
    <path fill="#46360a" d="M 82.665 312.843 C 59.422 309.955 32.985 298.426 14.45 283.097 C -10.55 262.42 -30.705 231.849 -39.186 201.742 C -43.18 187.562 -56.354 117.708 -62.086 80.36 C -64.568 64.16 -65.096 39.636 -63.102 33.058 C -59.998 22.815 -54.402 19.82 -36.527 18.838 C -26.015 18.261 -16.857 18.471 22.191 20.173 C 42.243 21.053 50.456 21.25 71.118 21.35 L 87.631 21.43 L 91.631 25.616 C 95.156 29.296 95.411 29.802 93.744 29.802 C 90.937 29.802 91.384 30.607 96.147 34.132 L 100.447 37.315 L 96.483 39.953 L 100.975 42.708 C 105.285 45.352 105.442 45.573 104.853 48.184 C 104.197 51.097 106.198 55.006 110.315 58.854 L 112.405 60.807 L 106.325 64.981 L 114.477 69.341 L 107.05 71.521 L 110.565 73.037 C 112.498 73.871 114.085 74.712 114.092 74.907 C 114.099 75.102 112.532 75.639 110.608 76.102 L 107.112 76.942 L 109.837 78.142 C 112.355 79.242 112.419 79.365 110.672 79.768 C 109.632 80.008 106.289 80.928 103.242 81.81 C 98.285 83.247 97.249 83.34 93.379 82.69 C 86.614 81.556 82.603 81.78 79.675 83.456 C 77.403 84.756 77.085 85.394 77.192 88.456 C 77.432 95.416 83.742 106.484 94.225 118.338 C 99.359 124.143 100.02 124.606 108.477 128.314 C 113.355 130.452 118.249 132.202 119.353 132.202 C 121.213 132.202 133.37 129.837 137.807 128.602 C 139.695 128.082 139.7 128.109 138.027 129.808 C 135.259 132.618 137.23 131.818 142.857 127.845 L 148.101 124.142 L 142.934 131.225 L 153.966 124.142 L 146.738 133.802 L 151.466 130.918 C 154.066 129.332 156.936 127.448 157.846 126.732 C 159.138 125.714 158.966 126.46 157.054 130.162 C 155.71 132.764 154.81 135.026 155.054 135.188 C 155.298 135.35 157.156 134.09 159.184 132.388 L 163.612 128.705 C 164.606 127.915 162.709 132.405 160.402 136.3 C 159.379 138.028 158.685 139.537 158.86 139.654 C 159.035 139.771 160.617 138.254 162.376 136.306 C 164.135 134.358 165.772 132.878 166.013 133.039 C 166.254 133.2 164.709 136.117 162.579 139.523 C 160.449 142.929 158.879 145.715 159.089 145.715 C 159.299 145.715 161.012 143.905 162.899 141.69 C 167.229 136.607 167.246 137.134 162.969 143.783 C 159.209 149.627 158.896 150.41 161.047 148.575 C 162.072 147.7 161.92 148.358 160.54 150.769 C 155.934 158.816 139.286 178.556 133.035 183.382 C 130.28 185.509 126.561 188.552 124.771 190.147 C 122.535 192.092 120.208 193.929 117.798 195.653 C 111.221 200.269 111.134 204.701 117.533 209.216 C 120.873 211.572 120.913 211.58 127.065 211.198 C 135.922 210.648 138.19 209.798 147.872 203.5 C 158.785 196.39 170.337 184.2 181.932 167.586 C 186.342 161.266 190.374 156.27 190.895 156.484 C 191.451 156.714 191.579 156.418 191.205 155.768 C 190.855 155.16 190.947 154.818 191.411 155.01 C 191.875 155.202 193.241 153.602 194.446 151.457 C 195.728 149.175 196.926 147.869 197.346 148.309 C 197.746 148.739 199.611 146.427 201.72 142.881 C 203.74 139.481 205.524 136.787 205.68 136.881 C 205.836 136.975 205.344 138.638 204.585 140.553 C 203.826 142.468 203.335 144.12 203.491 144.225 C 203.647 144.33 205.424 141.88 207.436 138.781 C 211.458 132.588 212.458 131.505 211.448 134.435 L 210.348 137.655 C 210.108 138.363 211.185 137.205 212.738 135.079 C 216.115 130.459 216.43 131.359 213.701 137.832 C 211.411 143.266 211.701 144.597 214.221 140.206 C 216.674 135.932 217.046 137.079 214.771 141.906 C 212.521 146.686 212.355 148.146 214.377 145.382 L 215.791 143.45 L 215.103 145.382 C 214.723 146.444 214.379 147.938 214.336 148.702 C 214.293 149.466 213.862 149.927 213.379 149.728 C 212.896 149.529 212.747 149.992 213.047 150.756 C 213.382 151.608 213.214 151.989 212.612 151.742 C 211.99 151.486 211.884 151.869 212.312 152.788 C 212.814 153.841 212.682 154.105 211.828 153.754 C 210.974 153.403 210.842 153.667 211.344 154.72 C 211.862 155.806 211.724 156.042 210.799 155.66 C 209.899 155.29 209.747 155.46 210.239 156.32 C 210.989 157.622 194.779 191.434 185.999 206.877 C 179.011 219.167 173.124 230.514 173.124 231.69 C 173.124 233.54 175.128 232.576 179.52 228.61 C 189.565 219.54 210.488 193.97 219.155 180.174 C 220.705 177.706 222.111 176.16 222.278 176.738 C 222.853 178.726 219.602 200.13 217.163 210.418 C 210.219 239.704 197.33 262.091 178.609 277.388 C 147.699 302.642 110.693 316.308 82.656 312.826 L 82.656 312.826 Z"/>
    <path fill="#372a09" d="M 82.665 312.843 C 59.422 309.955 32.985 298.426 14.45 283.097 C -10.55 262.42 -30.705 231.849 -39.186 201.742 C -43.18 187.562 -56.354 117.708 -62.086 80.36 C -64.568 64.16 -65.096 39.636 -63.102 33.058 C -59.998 22.815 -54.402 19.82 -36.527 18.838 C -26.015 18.261 -16.857 18.471 22.191 20.173 C 40.759 20.987 50.191 21.239 66.216 21.35 L 77.826 21.43 L 85.479 30.927 C 89.689 36.15 95.219 42.453 97.766 44.932 C 106.556 53.482 107.166 56.752 100.88 61.392 C 96.75 64.434 95.45 64.504 84.49 62.279 C 76.605 60.679 76.18 60.489 70.39 56.001 C 67.11 53.456 60.698 48.974 56.136 46.043 C 48.014 40.823 47.83 40.748 47.169 42.393 C 46.009 45.293 51.507 62.747 58.322 77.813 C 63.427 89.097 75.889 111.018 81.112 117.899 C 84.589 122.481 98.664 136.657 101.135 138.066 C 102.147 138.643 106.602 140.506 111.037 142.208 L 119.1 145.302 L 125.067 144.502 C 135.787 143.064 137.833 142.545 143.109 139.926 C 146.435 138.276 149.349 137.34 151.172 137.34 C 153.942 137.34 154.012 137.416 153.512 139.904 C 153.228 141.304 149.796 147.004 145.886 152.526 C 139.416 161.681 137.928 163.239 129.316 169.879 C 122.086 175.455 119.006 177.356 116.253 177.945 C 114.273 178.369 110.179 179.397 107.158 180.231 C 101.908 181.681 101.482 181.703 97.482 180.739 C 92.315 179.494 80.299 179.409 79.069 180.609 C 75.636 183.956 84.865 201.009 96.834 213.417 C 102.5 219.295 105.096 220.882 113.606 223.67 L 119.873 225.723 L 128.58 223.633 C 137.132 221.581 137.463 221.421 147.223 214.643 C 160.457 205.443 170.729 194.343 188.743 169.777 C 206.259 145.882 207.797 145.32 199.097 165.991 C 178.247 215.533 145.543 257.346 114.927 273.606 C 104.447 279.171 102.84 284.749 110.481 289.028 C 115.656 291.926 117.566 292.11 122.799 290.215 C 129.967 287.619 133.559 285.37 140.906 278.877 C 155.83 265.689 197.323 218.709 214.444 195.617 L 221.604 185.957 L 220.979 190.787 C 220.635 193.443 219.329 200.253 218.073 205.919 C 215.555 217.293 215.34 217.682 198.527 241.335 C 191.087 251.801 187.637 256.94 187.637 257.55 C 187.637 258.62 190.892 255.812 198.367 248.295 C 203.109 243.527 206.987 239.763 206.987 239.93 C 206.987 241.547 201.84 250.586 197.34 256.873 C 187.497 270.626 178.93 278.353 159.94 290.61 C 134.028 307.336 105.177 315.63 82.65 312.832 L 82.65 312.832 Z"/>
    <path fill="#2c2207" d="M 78.475 312.141 C 61.247 309.056 41.657 301.574 28.135 292.914 C -3.415 272.709 -30.043 236.146 -39.669 199.814 C -42.384 189.566 -47.403 164.086 -54.192 126.084 C -63.705 72.813 -65.858 54.085 -64.032 40.44 C -61.685 22.893 -57.01 19.566 -33.931 19.016 C -22.092 18.733 17.225 19.778 24.325 20.573 L 27.911 20.97 L 29.935 27.17 C 34.851 42.223 47.159 71.74 56.685 91.323 C 61.87 101.983 78.647 130.307 85.1 139.296 C 93.407 150.868 94.775 153.976 92.552 156.236 C 91.452 157.354 89.695 157.992 86.832 158.314 L 82.702 158.778 L 72.742 151.774 C 67.262 147.922 60.792 142.597 58.365 139.94 C 55.938 137.283 54.23 135.683 54.573 136.383 C 55.125 137.508 54.883 137.47 52.491 136.061 C 51.003 135.184 49.461 134.177 49.066 133.821 C 47.794 132.681 48.27 139.837 49.808 144.956 C 51.633 151.034 62.002 176.233 65.76 183.726 C 67.26 186.726 72.104 194.996 76.502 202.078 C 83.13 212.753 85.902 216.334 92.64 223.006 C 102.723 232.976 103.353 233.429 111.16 236.383 C 116.622 238.45 118.573 238.827 125.24 239.103 L 132.98 239.425 L 133.266 241.685 C 133.484 243.407 132.793 244.645 130.363 246.882 C 122.771 253.875 119.473 255.949 111.896 258.5 C 104.416 261.018 104.313 261.032 98.35 260.336 C 95.045 259.95 90.53 259.262 88.317 258.806 C 84.947 258.113 84.377 258.121 84.799 258.856 C 85.199 259.552 84.784 259.601 82.787 259.096 C 80.549 258.53 80.202 258.636 79.667 260.056 C 78.78 262.409 80.937 269.306 85.297 278.06 C 87.414 282.31 89.279 286.24 89.443 286.792 C 89.913 288.37 98.139 297.102 101.923 300.034 C 104.395 301.951 106.551 302.891 109.676 303.414 C 116.366 304.534 117.191 304.379 124.463 300.619 C 134.849 295.249 143.506 286.837 170.217 256.166 C 183.595 240.804 198.517 224.653 200.801 223.042 C 203.421 221.2 203.391 223.087 200.728 227.668 C 194.061 239.131 149.85 295.99 145.634 298.52 C 137.977 303.12 117.092 310.162 105.346 312.104 C 97.646 313.379 85.471 313.398 78.482 312.146 L 78.48 312.148 Z M 186.11 268.315 C 188.38 265.191 197.32 255.447 197.322 256.095 C 197.325 257.022 188.858 267.098 186.656 268.787 L 184.649 270.327 L 186.109 268.315 Z"/>
    <path fill="#241b05" d="M 78.34 311.819 C 60.51 308.712 40.804 301.019 26.44 291.581 C -2.563 272.505 -27.975 238.205 -38.207 204.321 C -42.315 190.713 -57.137 112.233 -61.981 78.433 C -64.109 63.587 -64.578 41.333 -62.911 34.333 C -61.683 29.163 -57.915 23.831 -54.305 22.115 C -49.523 19.849 -41.311 18.863 -27.675 18.918 C -13.775 18.974 20.845 20.302 21.485 20.804 C 21.708 20.978 25.011 29.234 28.825 39.151 L 47.345 85.514 C 53.785 100.473 57.995 111.773 57.995 114.133 C 57.995 116.846 55.829 116.671 52.481 113.688 C 50.991 112.36 49.291 110.983 48.703 110.628 C 46.073 109.042 40.046 101.251 34.676 92.491 C 31.462 87.248 28.469 82.809 28.026 82.627 C 27.583 82.445 27.286 82.101 27.368 81.865 C 27.45 81.629 26.04 80.04 24.235 78.335 C 21.005 75.285 20.939 75.261 20.073 76.819 C 18.561 79.539 23.46 95.599 36.09 129.326 C 44.058 150.604 49.35 162.578 60.906 185.496 L 69.023 201.746 C 69.363 202.551 77.045 215.73 86.289 231.366 C 89.005 235.96 89.199 240.57 86.689 240.906 C 85.679 241.041 83.625 240.349 81.969 239.316 C 79.089 237.519 79.059 237.516 80.239 239.096 C 82.707 242.396 68.465 232.226 65.211 228.364 C 61.817 224.336 55.941 219.778 54.146 219.778 C 52.316 219.778 53.146 225.448 56.096 233.096 C 64.792 255.636 86.056 295.226 92.904 301.624 C 94.001 302.649 94.641 303.487 94.328 303.487 C 94.015 303.487 95.731 305.443 98.143 307.834 C 102.437 312.09 102.483 312.189 100.34 312.599 C 96.01 313.429 85.434 313.051 78.342 311.815 L 78.341 311.82 Z"/>
    <path fill="#191303" d="M 74.18 306.043 C 70.978 303.906 67.878 302.263 67.28 302.39 C 66.682 302.517 66.077 303.833 65.914 305.31 C 65.71 307.156 65.171 307.997 64.194 307.997 C 61.931 307.997 51.449 304.307 42.506 300.364 C 7.678 285.004 -26.374 244.234 -38.244 203.677 C -42.042 190.7 -55.754 118.497 -61.114 83.261 C -64.714 59.521 -64.654 37.534 -60.939 28.851 C -59.446 25.361 -52.982 21.159 -47.465 20.091 C -43.171 19.259 -9.548 18.786 -8.412 19.541 C -8.112 19.734 -6.162 25.384 -4.052 32.098 C 6.225 64.798 19.671 102.673 33.4 137.561 L 44.837 167.504 C 45.019 168.45 46.095 171.784 47.227 174.91 C 48.359 178.036 49.292 181.37 49.299 182.315 C 49.306 183.26 49.926 185.573 50.679 187.455 C 51.933 190.59 51.913 190.855 50.433 190.667 C 49.393 190.534 46.817 187.373 43.183 181.775 L 32.866 166.328 C 30.291 162.608 26.192 156.106 23.758 151.876 C 21.324 147.646 18.686 143.756 17.898 143.229 C 14.875 141.217 15.184 144.702 19.195 157.861 C 28.341 187.861 39.759 214.906 62.87 261.309 C 76.378 288.429 79.55 295.489 83.05 306.193 C 83.807 308.509 82.99 309.927 80.902 309.927 C 80.408 309.927 77.382 308.177 74.182 306.041 L 74.181 306.046 Z M 17.933 42.773 C 16.465 41.673 5.745 22.333 5.745 20.763 C 5.745 20.43 7.658 20.158 9.995 20.158 C 15.019 20.158 14.999 20.134 16.422 27.731 C 17.118 31.322 17.956 34.885 18.934 38.411 C 19.736 41.191 20.214 43.583 19.997 43.727 C 19.78 43.871 18.85 43.437 17.932 42.763 L 17.932 42.763 Z"/>
    <path fill="#120d02" d="M 50.175 303.3 C 39.879 299.395 32.595 295.504 22.932 288.747 C -5.888 268.592 -30.408 233.3 -39.233 199.267 C -42.908 185.097 -57.196 107.892 -61.023 81.517 C -64.567 57.101 -64.575 37.871 -61.043 29.737 C -59.483 26.143 -56.038 23.204 -51.383 21.494 C -47.736 20.154 -45.293 19.871 -33.891 19.464 C -26.601 19.204 -19.173 19.192 -17.391 19.436 L -14.133 19.879 L -6.669 42.714 C 3.551 73.955 8.645 90.533 8.645 92.528 C 8.645 93.45 8.203 94.204 7.663 94.204 C 5.693 94.204 2.986 90.052 -1.493 80.162 C -8.788 64.057 -22.411 36.777 -24.383 34.327 L -26.189 32.083 L -26.189 35.221 C -26.189 40.526 -8.719 96.774 7.327 143.145 C 19.207 177.475 30.017 205.318 40.077 227.501 C 47.542 243.964 52.185 255.211 52.185 256.831 C 52.185 262.519 42.228 251.431 34.805 237.481 C 27.38 223.521 25.102 219.661 22.733 217.019 L 20.395 214.419 L 20.895 217.262 C 21.492 220.657 27.561 235.402 33.328 247.462 C 45.551 273.042 59.503 306.06 58.09 306.06 C 57.743 306.06 54.19 304.816 50.172 303.296 L 50.171 303.298 Z"/>
    <path fill="#080600" d="M 45.5 301.065 C 10.553 287.307 -24.716 246.525 -37.22 205.415 C -40.267 195.399 -44.51 174.415 -52.748 128.575 C -61.429 80.291 -63.115 67.993 -63.242 52.029 C -63.358 37.395 -62.215 30.816 -58.925 27.217 C -56.401 24.454 -56.191 24.732 -52.827 35.287 L -12.547 156.025 C -0.983 190.129 4.886 203.789 28.128 250.685 C 42.221 279.121 52.832 302.631 51.863 303.285 C 51.711 303.385 48.848 302.391 45.501 301.073 L 45.501 301.076 Z M -30.602 67.573 C -32.54 63.549 -37.502 51.596 -41.628 41.011 C -48.288 23.921 -48.962 21.675 -47.634 20.961 C -45.389 19.753 -40.929 19.949 -40.308 21.283 C -38.552 25.053 -24.254 71.383 -24.254 73.318 C -24.254 74.268 -24.814 74.891 -25.667 74.891 C -26.617 74.891 -28.237 72.489 -30.604 67.575 L -30.604 67.575 Z"/>
    <g transform="matrix(1, 0, 0, 1, -134.990891, 5.896172)">
      <path d="M 231.164 186.952 C 225.89 190.472 221.79 193.939 218.864 197.352 C 214.857 202.239 212.17 205.122 210.804 206.002 C 206.31 208.829 195.52 210.242 178.434 210.242 C 159.487 210.242 147.427 208.682 142.254 205.562 C 139.714 204.095 138.444 201.555 138.444 197.942 C 138.444 190.129 143.13 180.605 152.504 169.372 C 162.364 157.559 175.107 146.622 190.734 136.562 C 197.867 132.069 201.434 127.722 201.434 123.522 C 201.434 117.962 198.257 111.909 191.904 105.362 C 186.63 99.989 181.26 97.302 175.794 97.302 C 171.694 97.302 168.277 98.425 165.544 100.672 C 162.71 102.919 159.144 106.875 154.844 112.542 C 152.11 116.055 150.157 118.935 148.984 121.182 C 146.45 125.869 144.937 128.359 144.444 128.652 C 144.057 129.045 143.57 129.242 142.984 129.242 C 140.93 129.242 139.904 128.119 139.904 125.872 C 139.904 124.305 141.32 120.839 144.154 115.472 C 149.914 104.732 157.677 94.429 167.444 84.562 C 174.184 77.822 180.237 74.452 185.604 74.452 C 194.784 74.452 204.794 82.705 215.634 99.212 C 219.834 95.892 224.327 91.692 229.114 86.612 C 234.094 81.339 238.734 78.069 243.034 76.802 C 247.327 75.629 253.87 75.042 262.664 75.042 C 281.017 75.042 293.76 76.359 300.894 78.992 C 305.287 80.559 307.484 83.589 307.484 88.082 C 307.484 92.475 305.677 97.895 302.064 104.342 C 297.67 112.055 289.224 121.429 276.724 132.462 C 269.304 138.909 262.417 144.379 256.064 148.872 C 248.837 154.145 245.224 158.685 245.224 162.492 C 245.224 167.372 248.107 172.939 253.874 179.192 C 259.734 185.439 265.837 188.562 272.184 188.562 C 281.164 188.562 289.12 180.945 296.054 165.712 C 298.987 159.365 301.674 156.192 304.114 156.192 C 305.674 156.192 306.454 156.925 306.454 158.392 C 306.454 160.345 304.064 165.669 299.284 174.362 C 291.764 187.835 283.607 198.235 274.814 205.562 C 270.714 208.975 266.417 210.682 261.924 210.682 C 255.09 210.682 247.964 206.485 240.544 198.092 C 237.71 195.059 234.584 191.345 231.164 186.952 Z M 262.804 94.672 C 245.424 94.672 235.17 95.795 232.044 98.042 C 229.604 99.895 228.384 103.262 228.384 108.142 C 228.384 118.302 230.237 128.312 233.944 138.172 C 235.804 143.252 238.394 145.792 241.714 145.792 C 245.52 145.792 250.354 143.839 256.214 139.932 C 267.447 132.605 276.677 123.572 283.904 112.832 C 285.95 109.805 286.974 107.219 286.974 105.072 C 286.974 102.532 286.047 100.432 284.194 98.772 C 281.167 96.039 274.037 94.672 262.804 94.672 Z M 204.354 139.642 C 198.794 139.642 190.447 144.525 179.314 154.292 C 166.227 165.812 159.684 174.845 159.684 181.392 C 159.684 187.932 168.617 191.202 186.484 191.202 C 201.43 191.202 210.564 190.225 213.884 188.272 C 217.004 186.419 218.564 183.049 218.564 178.162 C 218.564 172.795 217.394 165.229 215.054 155.462 C 213 147.162 210.95 142.329 208.904 140.962 C 207.73 140.082 206.214 139.642 204.354 139.642 Z" style="fill: rgb(255, 255, 255); white-space: pre;"/>
    </g>
  </g>
</svg>